<?xml version="1.0" encoding="UTF-8"?> <svg xmlns="http://www.w3.org/2000/svg" viewBox="0 0 78 78"><title>nav-iconcontact</title><g id="Nav"><g><path d="M23.25,29.91V9.48a5,5,0,0,1,5-5H71.43a5,5,0,0,1,5,5v26a5,5,0,0,1-5,5v7.67l-7.67-7.67H53.64" fill="none" stroke="#000" stroke-miterlimit="10" fill-rule="evenodd"></path><path d="M13.13,65.82,5.46,73.49V65.82a5,5,0,0,1-5-5v-26a5,5,0,0,1,5-5H48.68a5,5,0,0,1,5,5v26a5,5,0,0,1-5,5Z" fill="none" stroke="#000" stroke-miterlimit="10" fill-rule="evenodd"></path><line x1="7.7" y1="42.55" x2="46.44" y2="42.55" fill="none" stroke="#000" stroke-miterlimit="10"></line><line x1="46.44" y1="53.15" x2="7.7" y2="53.15" fill="none" stroke="#000" stroke-miterlimit="10"></line><polyline points="42.17 48.86 46.44 53.13 42.12 57.45" fill="none" stroke="#000" stroke-miterlimit="10" fill-rule="evenodd"></polyline><g><line x1="30.44" y1="13.2" x2="69.19" y2="13.2" fill="none" stroke="#000" stroke-miterlimit="10"></line><line x1="69.19" y1="23.8" x2="30.44" y2="23.8" fill="none" stroke="#000" stroke-miterlimit="10"></line><polyline points="64.92 19.5 69.19 23.77 64.87 28.1" fill="none" stroke="#000" stroke-miterlimit="10" fill-rule="evenodd"></polyline></g></g></g></svg> 