<?xml version="1.0" encoding="UTF-8"?> <svg xmlns="http://www.w3.org/2000/svg" viewBox="0 0 78 78"><title>nav-iconresearch</title><g id="Nav"><g><polyline points="5.15 5.48 0.5 5.48 0.5 77.3 54.99 77.3 54.99 72.65" fill="none" stroke="#000" stroke-miterlimit="10"></polyline><polygon points="49.96 0.84 5.15 0.84 5.15 72.65 59.64 72.65 59.64 10.55 49.96 0.84" fill="none" stroke="#000" stroke-miterlimit="10"></polygon><line x1="13.66" y1="51.73" x2="50.98" y2="51.73" fill="none" stroke="#000" stroke-miterlimit="10"></line><line x1="50.98" y1="61.94" x2="13.66" y2="61.94" fill="none" stroke="#000" stroke-miterlimit="10"></line><polyline points="46.87 57.8 50.98 61.91 46.82 66.08" fill="none" stroke="#000" stroke-miterlimit="10" fill-rule="evenodd"></polyline><polyline points="49.96 0.7 49.96 10.55 59.64 10.55" fill="none" stroke="#000" stroke-miterlimit="10"></polyline><g><g><line x1="20.22" y1="37.38" x2="20.22" y2="34.11" fill="none" stroke="#000" stroke-miterlimit="10"></line><line x1="26.3" y1="37.38" x2="26.3" y2="28.93" fill="none" stroke="#000" stroke-miterlimit="10"></line><line x1="32.38" y1="37.38" x2="32.38" y2="29.89" fill="none" stroke="#000" stroke-miterlimit="10"></line><line x1="38.45" y1="37.38" x2="38.45" y2="25.24" fill="none" stroke="#000" stroke-miterlimit="10"></line><line x1="44.53" y1="37.38" x2="44.53" y2="22.4" fill="none" stroke="#000" stroke-miterlimit="10"></line></g><path d="M50,17.67V41.08H14.66V17.67H50m1-1H13.66V42.08H51V16.67Z"></path></g></g></g></svg> 