<?xml version="1.0" encoding="UTF-8"?> <svg xmlns="http://www.w3.org/2000/svg" viewBox="0 0 77 77"><title>nav-iconslack</title><g id="Nav"><g><path d="M17.78,48a7.53,7.53,0,1,1-7.53-7.52h7.53Zm3.76,0a7.53,7.53,0,0,1,15.05,0V66.78a7.53,7.53,0,0,1-15.05,0Z" fill="none" stroke="#000" stroke-miterlimit="10"></path><path d="M29.06,17.75a7.53,7.53,0,1,1,7.53-7.53v7.53Zm0,3.82a7.53,7.53,0,1,1,0,15H10.19a7.53,7.53,0,0,1,0-15Z" fill="none" stroke="#000" stroke-miterlimit="10"></path><path d="M59.22,29.09a7.53,7.53,0,1,1,7.53,7.53H59.22Zm-3.76,0a7.53,7.53,0,1,1-15.05,0V10.22a7.53,7.53,0,0,1,15.05,0Z" fill="none" stroke="#000" stroke-miterlimit="10"></path><path d="M47.94,59.25a7.53,7.53,0,1,1-7.53,7.53V59.25Zm0-3.76a7.53,7.53,0,1,1,0-15.05H66.81a7.53,7.53,0,0,1,0,15.05Z" fill="none" stroke="#000" stroke-miterlimit="10"></path></g></g></svg> 