<?xml version="1.0" encoding="UTF-8"?>
<svg width="1222px" height="465px" viewBox="0 0 1222 465" version="1.1" xmlns="http://www.w3.org/2000/svg" xmlns:xlink="http://www.w3.org/1999/xlink">
    <title>flow-sparsification_type-sparsify_oneshot</title>
    <defs>
        <filter id="filter-1">
            <feColorMatrix in="SourceGraphic" type="matrix" values="0 0 0 0 0.164706 0 0 0 0 0.188235 0 0 0 0 0.235294 0 0 0 1.000000 0"></feColorMatrix>
        </filter>
        <filter id="filter-2">
            <feColorMatrix in="SourceGraphic" type="matrix" values="0 0 0 0 0.164706 0 0 0 0 0.188235 0 0 0 0 0.235294 0 0 0 1.000000 0"></feColorMatrix>
        </filter>
        <filter id="filter-3">
            <feColorMatrix in="SourceGraphic" type="matrix" values="0 0 0 0 0.164706 0 0 0 0 0.188235 0 0 0 0 0.235294 0 0 0 1.000000 0"></feColorMatrix>
        </filter>
        <filter id="filter-4">
            <feColorMatrix in="SourceGraphic" type="matrix" values="0 0 0 0 0.164706 0 0 0 0 0.188235 0 0 0 0 0.235294 0 0 0 1.000000 0"></feColorMatrix>
        </filter>
        <filter id="filter-5">
            <feColorMatrix in="SourceGraphic" type="matrix" values="0 0 0 0 0.164706 0 0 0 0 0.188235 0 0 0 0 0.235294 0 0 0 1.000000 0"></feColorMatrix>
        </filter>
        <filter id="filter-6">
            <feColorMatrix in="SourceGraphic" type="matrix" values="0 0 0 0 0.164706 0 0 0 0 0.188235 0 0 0 0 0.235294 0 0 0 1.000000 0"></feColorMatrix>
        </filter>
        <filter id="filter-7">
            <feColorMatrix in="SourceGraphic" type="matrix" values="0 0 0 0 0.164706 0 0 0 0 0.188235 0 0 0 0 0.235294 0 0 0 1.000000 0"></feColorMatrix>
        </filter>
        <filter id="filter-8">
            <feColorMatrix in="SourceGraphic" type="matrix" values="0 0 0 0 0.023529 0 0 0 0 0.180392 0 0 0 0 0.960784 0 0 0 1.000000 0"></feColorMatrix>
        </filter>
        <filter id="filter-9">
            <feColorMatrix in="SourceGraphic" type="matrix" values="0 0 0 0 0.164706 0 0 0 0 0.188235 0 0 0 0 0.235294 0 0 0 1.000000 0"></feColorMatrix>
        </filter>
        <filter id="filter-10">
            <feColorMatrix in="SourceGraphic" type="matrix" values="0 0 0 0 0.164706 0 0 0 0 0.188235 0 0 0 0 0.235294 0 0 0 1.000000 0"></feColorMatrix>
        </filter>
    </defs>
    <g id="flow-sparsification_type-sparsify_oneshot" stroke="none" stroke-width="1" fill="none" fill-rule="evenodd">
        <g id="card-model">
            <g id="title" transform="translate(1.000000, 1.000000)">
                <rect id="container" stroke="#000000" fill="#FFFFFF" x="0.5" y="0.5" width="223" height="51"></rect>
                <text font-family="HelveticaNeue-Bold, Helvetica Neue" font-size="24" font-weight="bold" fill="#2A303C">
                    <tspan x="76.468" y="35">Model</tspan>
                </text>
            </g>
            <g id="row-sparsezoo" transform="translate(1.000000, 53.000000)">
                <rect id="container" stroke="#000000" fill="#FFFFFF" x="0.5" y="0.5" width="223" height="63"></rect>
                <text id="title" font-family="HelveticaNeue, Helvetica Neue" font-size="21" font-weight="normal" fill="#2A303C">
                    <tspan x="64" y="40">SparseZoo</tspan>
                </text>
                <g filter="url(#filter-1)" id="icon">
                    <g transform="translate(12.000000, 12.000000)">
                        <circle id="Oval" stroke="#000000" cx="5.57837838" cy="5.76216216" r="5.00540541"></circle>
                        <circle id="Oval" stroke="#000000" cx="19.8810811" cy="5.76216216" r="5.00540541"></circle>
                        <circle id="Oval" stroke="#000000" cx="34.172973" cy="5.76216216" r="5.00540541"></circle>
                        <circle id="Oval" stroke="#000000" cx="5.57837838" cy="20.227027" r="5.00540541"></circle>
                        <circle id="Oval" stroke="#000000" cx="19.8810811" cy="20.227027" r="5.00540541"></circle>
                        <circle id="Oval" stroke="#000000" cx="34.172973" cy="20.227027" r="5.00540541"></circle>
                        <circle id="Oval" stroke="#000000" cx="5.57837838" cy="34.7027027" r="5.00540541"></circle>
                        <circle id="Oval" stroke="#000000" cx="19.8810811" cy="34.7027027" r="5.00540541"></circle>
                        <circle id="Oval" stroke="#000000" cx="34.172973" cy="34.7027027" r="5.00540541"></circle>
                    </g>
                </g>
            </g>
            <g id="row-yours" transform="translate(1.000000, 116.000000)">
                <rect id="container" stroke="#000000" fill="#FFFFFF" x="0.5" y="0.5" width="223" height="63"></rect>
                <text id="title" font-family="HelveticaNeue, Helvetica Neue" font-size="21" font-weight="normal" fill="#2A303C">
                    <tspan x="64" y="40">Your Model</tspan>
                </text>
                <g filter="url(#filter-2)" id="icon">
                    <g transform="translate(12.000000, 12.000000)">
                        <ellipse id="Oval" stroke="#000000" cx="22.0854701" cy="5.16949153" rx="5.21367521" ry="5.16949153"></ellipse>
                        <ellipse id="Oval" stroke="#000000" cx="5.21367521" cy="11.8034958" rx="5.21367521" ry="5.16949153"></ellipse>
                        <ellipse id="Oval" stroke="#000000" cx="20.0854701" cy="20.0847458" rx="5.21367521" ry="5.16949153"></ellipse>
                        <ellipse id="Oval" stroke="#000000" cx="34.7863248" cy="20.0847458" rx="5.21367521" ry="5.16949153"></ellipse>
                        <ellipse id="Oval" stroke="#000000" cx="5.21367521" cy="28.5805085" rx="5.21367521" ry="5.16949153"></ellipse>
                        <ellipse id="Oval" stroke="#000000" cx="22.0854701" cy="34.8305085" rx="5.21367521" ry="5.16949153"></ellipse>
                    </g>
                </g>
            </g>
            <rect id="border" stroke="#062EF5" stroke-width="2" x="1" y="1" width="224" height="179"></rect>
        </g>
        <g id="card-recipe" transform="translate(0.000000, 221.000000)">
            <g id="title" transform="translate(1.000000, 1.000000)">
                <rect id="container" stroke="#000000" fill="#FFFFFF" x="0.5" y="0.5" width="223" height="51"></rect>
                <text font-family="HelveticaNeue-Bold, Helvetica Neue" font-size="24" font-weight="bold" fill="#2A303C">
                    <tspan x="72.244" y="35">Recipe</tspan>
                </text>
            </g>
            <g id="row-sparsezoo" transform="translate(1.000000, 53.000000)">
                <rect id="container" stroke="#000000" fill="#FFFFFF" x="0.5" y="0.5" width="223" height="63"></rect>
                <text id="title" font-family="HelveticaNeue, Helvetica Neue" font-size="21" font-weight="normal" fill="#2A303C">
                    <tspan x="64" y="40">SparseZoo</tspan>
                </text>
                <g filter="url(#filter-3)" id="icon">
                    <g transform="translate(12.000000, 12.000000)">
                        <circle id="Oval" stroke="#000000" cx="5.57837838" cy="5.76216216" r="5.00540541"></circle>
                        <circle id="Oval" stroke="#000000" cx="19.8810811" cy="5.76216216" r="5.00540541"></circle>
                        <circle id="Oval" stroke="#000000" cx="34.172973" cy="5.76216216" r="5.00540541"></circle>
                        <circle id="Oval" stroke="#000000" cx="5.57837838" cy="20.227027" r="5.00540541"></circle>
                        <circle id="Oval" stroke="#000000" cx="19.8810811" cy="20.227027" r="5.00540541"></circle>
                        <circle id="Oval" stroke="#000000" cx="34.172973" cy="20.227027" r="5.00540541"></circle>
                        <circle id="Oval" stroke="#000000" cx="5.57837838" cy="34.7027027" r="5.00540541"></circle>
                        <circle id="Oval" stroke="#000000" cx="19.8810811" cy="34.7027027" r="5.00540541"></circle>
                        <circle id="Oval" stroke="#000000" cx="34.172973" cy="34.7027027" r="5.00540541"></circle>
                    </g>
                </g>
            </g>
            <g id="row-sparsify" transform="translate(1.000000, 116.000000)">
                <rect id="container" stroke="#000000" fill="#FFFFFF" x="0.5" y="0.5" width="223" height="63"></rect>
                <text id="title" font-family="HelveticaNeue, Helvetica Neue" font-size="21" font-weight="normal" fill="#2A303C">
                    <tspan x="64" y="40">Sparsify</tspan>
                </text>
                <g filter="url(#filter-4)" id="icon">
                    <g transform="translate(12.000000, 14.000000)">
                        <line x1="20.1714286" y1="0.923809524" x2="20.1714286" y2="14.3714286" id="Path" stroke="#000000"></line>
                        <polyline id="Path" stroke="#000000" points="22.4095238 12.1238095 20.1619048 14.3714286 17.8761905 12.0952381"></polyline>
                        <polyline id="Path" stroke="#000000" points="17.8761905 28.5238095 20.1333333 26.2666667 22.4095238 28.552381"></polyline>
                        <line x1="20.1714286" y1="26.2380952" x2="20.1714286" y2="39.7619048" id="Path" stroke="#000000"></line>
                        <line x1="39.5619048" y1="20.3714286" x2="26.1142857" y2="20.3714286" id="Path" stroke="#000000"></line>
                        <polyline id="Path" stroke="#000000" points="28.3714286 22.6095238 26.1142857 20.3619048 28.3904762 18.0761905"></polyline>
                        <polyline id="Path" stroke="#000000" points="11.9619048 18.0761905 14.2190476 20.3333333 11.9428571 22.6095238"></polyline>
                        <line x1="14.247619" y1="20.3714286" x2="0.723809524" y2="20.3714286" id="Path" stroke="#000000"></line>
                        <line x1="6.42857143" y1="6.6" x2="15.9428571" y2="16.1047619" id="Path" stroke="#000000"></line>
                        <polyline id="Path" stroke="#000000" points="15.9333333 12.9238095 15.9333333 16.1142857 12.7047619 16.1142857"></polyline>
                        <polyline id="Path" stroke="#000000" points="24.3238095 27.7333333 24.3238095 24.5428571 27.552381 24.5428571"></polyline>
                        <line x1="24.3333333" y1="24.4952381" x2="33.8952381" y2="34.0571429" id="Path" stroke="#000000"></line>
                        <line x1="33.8952381" y1="6.62857143" x2="24.3809524" y2="16.1428571" id="Path" stroke="#000000"></line>
                        <polyline id="Path" stroke="#000000" points="27.5619048 16.1333333 24.3809524 16.1333333 24.3809524 12.9142857"></polyline>
                        <polyline id="Path" stroke="#000000" points="12.7619048 24.5238095 15.9428571 24.5238095 15.9428571 27.752381"></polyline>
                        <line x1="16" y1="24.5333333" x2="6.42857143" y2="34.0952381" id="Path" stroke="#000000"></line>
                    </g>
                </g>
            </g>
            <g id="row-sparseml" transform="translate(1.000000, 179.000000)">
                <rect id="container" stroke="#000000" fill="#FFFFFF" x="0.5" y="0.5" width="223" height="63"></rect>
                <text id="title" font-family="HelveticaNeue, Helvetica Neue" font-size="21" font-weight="normal" fill="#2A303C">
                    <tspan x="64" y="40">SparseML</tspan>
                </text>
                <g filter="url(#filter-5)" id="icon">
                    <g transform="translate(12.000000, 12.000000)">
                        <line x1="0.335135135" y1="1.39428571" x2="38.9297297" y2="1.39428571" id="Path" stroke="#000000"></line>
                        <line x1="0.335135135" y1="12.5485714" x2="38.9297297" y2="12.5485714" id="Path" stroke="#000000"></line>
                        <line x1="0.335135135" y1="23.7142857" x2="38.9297297" y2="23.7142857" id="Path" stroke="#000000"></line>
                        <line x1="38.9297297" y1="34.88" x2="0.335135135" y2="34.88" id="Path" stroke="#000000"></line>
                        <polyline id="Path" stroke="#000000" points="34.6702703 30.3542857 38.9297297 34.8571429 34.627027 39.4057143"></polyline>
                    </g>
                </g>
            </g>
            <rect id="border" stroke="#062EF5" stroke-width="2" x="1" y="1" width="224" height="242"></rect>
        </g>
        <g id="card-sparsification" transform="translate(426.000000, 158.000000)">
            <g id="title" transform="translate(1.000000, 1.000000)">
                <rect id="container" stroke="#000000" fill="#FFFFFF" x="0.5" y="0.5" width="295" height="51"></rect>
                <text font-family="HelveticaNeue-Bold, Helvetica Neue" font-size="24" font-weight="bold" fill="#2A303C">
                    <tspan x="68.908" y="35">Sparsification</tspan>
                </text>
            </g>
            <g id="row-sparseml-training" transform="translate(1.000000, 53.000000)">
                <rect id="container" stroke="#000000" fill="#FFFFFF" x="0.5" y="0.5" width="295" height="63"></rect>
                <text id="title" font-family="HelveticaNeue, Helvetica Neue" font-size="21" font-weight="normal" fill="#2A303C">
                    <tspan x="64" y="40">SparseML + training</tspan>
                </text>
                <g filter="url(#filter-6)" id="icon">
                    <g transform="translate(12.000000, 12.000000)">
                        <line x1="0.335135135" y1="1.39428571" x2="38.9297297" y2="1.39428571" id="Path" stroke="#000000"></line>
                        <line x1="0.335135135" y1="12.5485714" x2="38.9297297" y2="12.5485714" id="Path" stroke="#000000"></line>
                        <line x1="0.335135135" y1="23.7142857" x2="38.9297297" y2="23.7142857" id="Path" stroke="#000000"></line>
                        <line x1="38.9297297" y1="34.88" x2="0.335135135" y2="34.88" id="Path" stroke="#000000"></line>
                        <polyline id="Path" stroke="#000000" points="34.6702703 30.3542857 38.9297297 34.8571429 34.627027 39.4057143"></polyline>
                    </g>
                </g>
            </g>
            <g id="row-sparsify" transform="translate(1.000000, 116.000000)">
                <rect id="container" stroke="#000000" fill="#FFFFFF" x="0.5" y="0.5" width="295" height="63"></rect>
                <text id="title" font-family="HelveticaNeue, Helvetica Neue" font-size="21" font-weight="normal" fill="#2A303C">
                    <tspan x="64" y="42">SparseML + one shot</tspan>
                </text>
                <g filter="url(#filter-7)" id="icon">
                    <g transform="translate(13.000000, 14.000000)">
                        <line x1="0.335135135" y1="1.39428571" x2="38.9297297" y2="1.39428571" id="Path" stroke="#000000"></line>
                        <line x1="0.335135135" y1="12.5485714" x2="38.9297297" y2="12.5485714" id="Path" stroke="#000000"></line>
                        <line x1="0.335135135" y1="23.7142857" x2="38.9297297" y2="23.7142857" id="Path" stroke="#000000"></line>
                        <line x1="38.9297297" y1="34.88" x2="0.335135135" y2="34.88" id="Path" stroke="#000000"></line>
                        <polyline id="Path" stroke="#000000" points="34.6702703 30.3542857 38.9297297 34.8571429 34.627027 39.4057143"></polyline>
                    </g>
                </g>
            </g>
            <g id="row-custom" transform="translate(1.000000, 179.000000)">
                <rect id="container" stroke="#000000" fill="#FFFFFF" x="0.5" y="0.5" width="295" height="63"></rect>
                <text id="title" font-family="HelveticaNeue, Helvetica Neue" font-size="21" font-weight="normal" fill="#062EF5">
                    <tspan x="64" y="40">Sparsify + one shot</tspan>
                </text>
                <g filter="url(#filter-8)" id="icon">
                    <g transform="translate(12.000000, 14.000000)">
                        <line x1="20.1714286" y1="0.923809524" x2="20.1714286" y2="14.3714286" id="Path" stroke="#000000"></line>
                        <polyline id="Path" stroke="#000000" points="22.4095238 12.1238095 20.1619048 14.3714286 17.8761905 12.0952381"></polyline>
                        <polyline id="Path" stroke="#000000" points="17.8761905 28.5238095 20.1333333 26.2666667 22.4095238 28.552381"></polyline>
                        <line x1="20.1714286" y1="26.2380952" x2="20.1714286" y2="39.7619048" id="Path" stroke="#000000"></line>
                        <line x1="39.5619048" y1="20.3714286" x2="26.1142857" y2="20.3714286" id="Path" stroke="#000000"></line>
                        <polyline id="Path" stroke="#000000" points="28.3714286 22.6095238 26.1142857 20.3619048 28.3904762 18.0761905"></polyline>
                        <polyline id="Path" stroke="#000000" points="11.9619048 18.0761905 14.2190476 20.3333333 11.9428571 22.6095238"></polyline>
                        <line x1="14.247619" y1="20.3714286" x2="0.723809524" y2="20.3714286" id="Path" stroke="#000000"></line>
                        <line x1="6.42857143" y1="6.6" x2="15.9428571" y2="16.1047619" id="Path" stroke="#000000"></line>
                        <polyline id="Path" stroke="#000000" points="15.9333333 12.9238095 15.9333333 16.1142857 12.7047619 16.1142857"></polyline>
                        <polyline id="Path" stroke="#000000" points="24.3238095 27.7333333 24.3238095 24.5428571 27.552381 24.5428571"></polyline>
                        <line x1="24.3333333" y1="24.4952381" x2="33.8952381" y2="34.0571429" id="Path" stroke="#000000"></line>
                        <line x1="33.8952381" y1="6.62857143" x2="24.3809524" y2="16.1428571" id="Path" stroke="#000000"></line>
                        <polyline id="Path" stroke="#000000" points="27.5619048 16.1333333 24.3809524 16.1333333 24.3809524 12.9142857"></polyline>
                        <polyline id="Path" stroke="#000000" points="12.7619048 24.5238095 15.9428571 24.5238095 15.9428571 27.752381"></polyline>
                        <line x1="16" y1="24.5333333" x2="6.42857143" y2="34.0952381" id="Path" stroke="#000000"></line>
                    </g>
                </g>
            </g>
            <rect id="border" stroke="#062EF5" stroke-width="2" x="1" y="1" width="296" height="242"></rect>
        </g>
        <g id="card-deployment" transform="translate(924.000000, 134.000000)">
            <g id="title" transform="translate(1.000000, 1.000000)">
                <rect id="container" stroke="#000000" fill="#FFFFFF" x="0.5" y="0.5" width="295" height="51"></rect>
                <text font-family="HelveticaNeue-Bold, Helvetica Neue" font-size="24" font-weight="bold" fill="#2A303C">
                    <tspan x="79.132" y="35">Deployment</tspan>
                </text>
            </g>
            <g id="row-deepsparse" transform="translate(1.000000, 53.000000)">
                <rect id="container" stroke="#000000" fill="#FFFFFF" x="0.5" y="0.5" width="295" height="79"></rect>
                <text id="title" font-family="HelveticaNeue, Helvetica Neue" font-size="21" font-weight="normal" fill="#2A303C">
                    <tspan x="64" y="35.5">ONNX Conversion + </tspan>
                    <tspan x="64" y="59.5">DeepSparse Engine</tspan>
                </text>
                <g filter="url(#filter-9)" id="icon">
                    <g transform="translate(12.000000, 22.500000)">
                        <path d="M18.38,1.37 C13.46,-2.44 0.38,7.06 0.38,15.72 C0.49,27.98 27.1,37.9 29.24,33.54 C30.12,31.76 26.24,28.92 22.99,18.85 C19.61,8.4 21.13,3.49 18.38,1.37 Z" id="Path" stroke="#000000"></path>
                        <path d="M23.34,38.68 C28.27,42.49 41.34,32.99 41.34,24.33 C41.23,12.07 14.62,2.15 12.47,6.51 C11.6,8.29 15.47,11.13 18.73,21.2 C22.12,31.65 20.6,36.56 23.34,38.68 Z" id="Path" stroke="#000000"></path>
                    </g>
                </g>
            </g>
            <g id="row-yours" transform="translate(1.000000, 132.000000)">
                <rect id="container" stroke="#000000" fill="#FFFFFF" x="0.5" y="0.5" width="295" height="63"></rect>
                <text id="title" font-family="HelveticaNeue, Helvetica Neue" font-size="21" font-weight="normal" fill="#2A303C">
                    <tspan x="64" y="40">Your Current Engine</tspan>
                </text>
                <g filter="url(#filter-10)" id="icon">
                    <g transform="translate(13.000000, 12.000000)">
                        <polygon id="Path" points="0 0 40 0 40 40 0 40"></polygon>
                        <path d="M11.6666667,30 L13.9999997,30 L13.9999997,10 L11.6666667,10 L11.6666667,30 Z M18.3333333,36.6666667 L20.6666663,36.6666667 L20.6666663,3.33333333 L18.3333333,3.33333333 L18.3333333,36.6666667 Z M5,23.3333333 L7.333333,23.3333333 L7.333333,16.6666667 L5,16.6666667 L5,23.3333333 Z M25,30 L27.333333,30 L27.333333,10 L25,10 L25,30 Z M31.6666667,16.6666667 L31.6666667,23.3333333 L33.9999997,23.3333333 L33.9999997,16.6666667 L31.6666667,16.6666667 Z" id="Shape" fill="#000000" fill-rule="nonzero"></path>
                    </g>
                </g>
            </g>
            <rect id="border" stroke="#062EF5" stroke-width="2" x="1" y="1" width="296" height="195"></rect>
        </g>
        <path d="M226.5,117 L246,117.530035 L671.288437,117.530035 C704.830102,117.530035 736.137831,134.345906 754.659561,162.30997 L794.340439,222.220066 C812.862169,250.184129 844.169898,267 877.711563,267 L906,267 L906,267 L923.5,266.469965" id="line-model-deployment" stroke-opacity="0.5" stroke="#2A303C" stroke-width="2" stroke-linecap="square"></path>
        <path d="M226.5,117.5 L250,118.148718 C279.115286,118.148718 304.225407,138.601523 310.116028,167.114685 L341.883972,320.885315 C347.774593,349.398477 372.884714,369.851282 402,369.851282 L402,369.851282 L402,369.851282 L426.5,370.5" id="line-model-sparsification" stroke="#062EF5" stroke-width="2" stroke-linecap="square"></path>
        <path d="M227,370 L250,370 L299.519242,370 C299.839745,370 300.160247,369.998459 300.480736,369.995378 L351.519264,369.504622 C351.839753,369.501541 352.160255,369.5 352.480758,369.5 L402,369.5 L402,369.5 L426,369.5" id="line-recipe-sparsification" stroke="#062EF5" stroke-width="2" stroke-linecap="square" transform="translate(326.500000, 369.750000) scale(1, -1) translate(-326.500000, -369.750000) "></path>
        <path d="M724.5,369.088496 L743,370 C774.951002,370 804.466153,352.925279 820.393644,325.227237 L828.552255,311.039342 C843.894579,284.35891 872.32536,267.911504 903.1025,267.911504 L903.1025,267.911504 L903.1025,267.911504 L923.5,267" id="line-sparsification-deployment" stroke="#062EF5" stroke-width="2" stroke-linecap="square"></path>
    </g>
</svg>